Coordinates
version=1
nRows=7
nColumns=40
inDegrees=yes

Units are S.I. units (second, meters, Newtons, ...)
If the header above contains a line with 'inDegrees', this indicates whether rotational values are in degrees (yes) or radians (no).

endheader
time	pelvis_tilt	pelvis_list	pelvis_rotation	pelvis_tx	pelvis_ty	pelvis_tz	hip_flexion_r	hip_adduction_r	hip_rotation_r	knee_angle_r	knee_angle_r_beta	ankle_angle_r	subtalar_angle_r	mtp_angle_r	hip_flexion_l	hip_adduction_l	hip_rotation_l	knee_angle_l	knee_angle_l_beta	ankle_angle_l	subtalar_angle_l	mtp_angle_l	lumbar_extension	lumbar_bending	lumbar_rotation	arm_flex_r	arm_add_r	arm_rot_r	elbow_flex_r	pro_sup_r	wrist_flex_r	wrist_dev_r	arm_flex_l	arm_add_l	arm_rot_l	elbow_flex_l	pro_sup_l	wrist_flex_l	wrist_dev_l
      0.63000000	     -2.40049199	    -11.38229214	     82.82459541	      0.26638935	      0.93121680	      1.01337033	    -12.33126732	     -2.63167844	      4.04565402	     13.80534091	      0.24094865	      5.50419652	      0.00000000	      0.00000000	     37.32203475	     -1.64601720	     -6.31823803	      1.46222158	      0.02552058	     -3.54988514	      0.00000000	      0.00000000	      2.07254552	     -4.37760397	      4.58458302	     -0.00000000	      0.00000000	      0.00000000	      0.00000000	      0.00000000	      0.00000000	     -0.00000000	     -0.00000000	     -0.00000000	     -0.00000000	      0.00000000	      0.00000000	      0.00000000	     -0.00000000
      0.64000000	     -3.18778190	    -11.43835641	     83.34560652	      0.26400721	      0.93154425	      0.99166261	    -11.33595980	     -3.52947305	      3.01547642	     17.11161677	      0.29865405	      2.29553551	      0.00000000	      0.00000000	     37.53405989	     -0.42099746	     -6.16433792	      3.35584650	      0.05857057	     -5.52220834	      0.00000000	      0.00000000	      2.19543877	     -5.37922007	      4.08251463	      0.00000000	      0.00000000	      0.00000000	      0.00000000	      0.00000000	      0.00000000	      0.00000000	      0.00000000	      0.00000000	      0.00000000	      0.00000000	      0.00000000	      0.00000000	      0.00000000
      0.65000000	     -3.99388611	    -11.32678305	     83.94091598	      0.26143106	      0.93272446	      0.96995185	    -10.19982927	     -4.47523474	      1.98117656	     20.82692586	      0.36349843	     -1.42874571	      0.00000000	      0.00000000	     37.53750318	      0.86392995	     -5.97201204	      5.40477886	      0.09433119	     -7.28417562	      0.00000000	      0.00000000	      2.08180676	     -6.38848474	      3.52482537	      0.00000000	      0.00000000	      0.00000000	      0.00000000	      0.00000000	      0.00000000	      0.00000000	      0.00000000	      0.00000000	      0.00000000	      0.00000000	      0.00000000	      0.00000000	      0.00000000
      0.66000000	     -4.82636389	    -11.24053862	     84.56024645	      0.25887590	      0.93439130	      0.94848256	     -8.69790874	     -5.43862998	      1.12344095	     24.95472383	      0.43554209	     -5.38631610	      0.00000000	      0.00000000	     37.56053004	      2.15093278	     -5.73704196	      7.59487275	      0.13255554	     -8.61327433	      0.00000000	      0.00000000	      1.95970349	     -7.44554440	      2.88367735	      0.00000000	      0.00000000	      0.00000000	      0.00000000	      0.00000000	      0.00000000	      0.00000000	      0.00000000	      0.00000000	      0.00000000	      0.00000000	      0.00000000	      0.00000000	      0.00000000
      0.67000000	     -5.61413108	    -11.09033690	     85.18679324	      0.25632395	      0.93659088	      0.92729961	     -6.98244933	     -6.35937972	      0.50663900	     29.36436510	      0.51250485	     -9.29959483	      0.00000000	      0.00000000	     37.45446307	      3.38599193	     -5.47085811	      9.78772596	      0.17082804	     -9.39907126	      0.00000000	      0.00000000	      1.70717328	     -8.42439504	      2.21756117	      0.00000000	      0.00000000	      0.00000000	      0.00000000	      0.00000000	      0.00000000	      0.00000000	      0.00000000	      0.00000000	      0.00000000	      0.00000000	      0.00000000	      0.00000000	      0.00000000
      0.68000000	     -6.34782783	    -10.93220085	     85.81034171	      0.25390502	      0.93918484	      0.90646974	     -5.05695101	     -7.20080951	      0.12895443	     33.89985912	      0.59166416	    -12.82330338	      0.00000000	      0.00000000	     37.23706931	      4.54722139	     -5.18725153	     11.87431974	      0.20724598	     -9.60418365	      0.00000000	      0.00000000	      1.40344038	     -9.33474693	      1.55195122	      0.00000000	      0.00000000	      0.00000000	      0.00000000	      0.00000000	      0.00000000	      0.00000000	      0.00000000	      0.00000000	      0.00000000	      0.00000000	      0.00000000	      0.00000000	      0.00000000
      0.69000000	     -6.97271117	    -10.82074673	     86.35957307	      0.25165758	      0.94199022	      0.88611926	     -2.87108708	     -7.89576362	      0.05134260	     38.47714550	      0.67155288	    -15.55607905	      0.00000000	      0.00000000	     36.95412292	      5.55814734	     -4.85552978	     13.80789826	      0.24099329	     -9.28187314	      0.00000000	      0.00000000	      1.10478817	    -10.09544017	      0.92398431	      0.00000000	      0.00000000	      0.00000000	      0.00000000	      0.00000000	      0.00000000	      0.00000000	      0.00000000	      0.00000000	      0.00000000	      0.00000000	      0.00000000	      0.00000000	      0.00000000
